<?xml version="1.0" encoding="utf-8"?>
<!-- Generator: Adobe Illustrator 21.1.0, SVG Export Plug-In . SVG Version: 6.00 Build 0)  -->
<!DOCTYPE svg PUBLIC "-//W3C//DTD SVG 1.1//EN" "http://www.w3.org/Graphics/SVG/1.1/DTD/svg11.dtd">
<svg version="1.1" id="Layer_1" xmlns="http://www.w3.org/2000/svg" xmlns:xlink="http://www.w3.org/1999/xlink" x="0px" y="0px"
	 viewBox="0 0 343 101" style="enable-background:new 0 0 343 101;" xml:space="preserve">
<style type="text/css">
	.st0{fill:#333333;}
	.st1{fill:#67153D;}
	.st2{fill:#893084;}
</style>
<g>
	<path class="st0" d="M189.9,79.8l5.4,16l0.1,0l5.3-16l2.7,0l-5.6,17.5c-0.6,1.8-1.3,2.3-2.3,2.3c-1,0-1.7-0.5-2.3-2.3l-5.9-17.5
		L189.9,79.8z"/>
	<path class="st0" d="M221.3,90.4l-9.4,0c0.2,3.6,3.5,6.4,6.9,6.4l2.5,0l0,2.4l-2,0c-5.8,0-10-4.2-10-9.7c0-5.5,4.2-9.7,10-9.7l2,0
		l0,2.5l-1.7,0c-5.1,0-7.6,3.8-7.7,5.7h9.4V90.4z"/>
	<path class="st0" d="M229.4,99.2l0-17.2c0-1.7,1-2.4,2.2-2.4c1.5,0,2,0.9,3,2.9l6.2,12.9h0l0-15.6l2.6,0l0,17.8c0,1-0.7,1.9-2,1.9
		c-1.2,0-1.8-0.4-2.6-1.9l-6.9-14.2H232l0,15.9L229.4,99.2z"/>
	<polygon class="st0" points="250.6,79.8 262.8,79.8 262.8,82.3 258,82.3 258,99.2 255.4,99.2 255.4,82.3 250.6,82.3 	"/>
	<path class="st0" d="M272.3,79.8l0,12.8c0,2.6,1.3,4.5,3.8,4.5c2.5,0,3.8-1.9,3.8-4.5l0-12.8l2.6,0l0,13.1c0,3.8-2.8,6.7-6.4,6.7
		c-3.6,0-6.4-3-6.4-6.7l0-13L272.3,79.8z"/>
	<path class="st0" d="M290.8,99.2l0-12.8c0-4.4,2.6-6.9,6.4-6.9c3.6,0,6,2.5,6,5.5c0,1.9-0.6,3.4-2.3,4.4c1.7,0.7,2.6,1.6,2.6,4.5
		l0,5.4l-2.6,0l0-5.3c0-1.9-1.1-3.2-3.5-3.2l-2.9,0l0-2.4l2,0c2.3,0,4.1-1,4-3.2c0-1.9-1.6-3.2-3.4-3.2c-2.3,0-3.8,1.5-3.8,3.7
		l0,13.6L290.8,99.2z"/>
	<path class="st0" d="M323.1,90.5l-9.4,0c0.2,3.7,3.4,6.4,6.8,6.4l2.5,0l0,2.4H321c-5.8,0-10-4.2-10-9.7c0-5.5,4.2-9.7,10-9.7h2.1
		v2.5l-1.7,0c-5.1,0-7.5,3.8-7.6,5.7l9.4,0L323.1,90.5z"/>
	<path class="st0" d="M330.4,96.8l6.7,0c2.3,0,3.2-0.8,3.2-2.5c0-4-9.8-3.8-9.8-9.6c0-3.2,2.3-4.9,5.3-4.9l6.2,0l0,2.4h-6.5
		c-1.4,0-2.4,0.8-2.4,2.3c0,3.6,9.8,3.6,9.8,9.5c0,3.1-1.9,5.2-5.4,5.2l-7.1,0L330.4,96.8z"/>
	<path class="st0" d="M1.6,79.6l0,13.6c0,2.7,1.7,4.8,4.2,4.8l3.7,0l0,1l-4.1,0c-2.4,0-5-1.9-5-5.7l0-13.7H1.6z"/>
	<polygon class="st0" points="17.5,99.1 17.5,79.6 18.7,79.6 18.6,99.1 	"/>
	<path class="st0" d="M44.2,83.4c-1.6-1.9-4.1-3-6.7-3c-5,0-8.6,4.1-8.6,9c0,4.9,3.7,9,8.6,9c4.8,0,8.3-3.8,8.4-8.6l-8.4,0l0-1
		l9.6,0c0.2,6.6-4.4,10.7-9.7,10.7c-5.5,0-9.8-4.5-9.8-10c0-5.5,4.3-10,9.9-10c2.9,0,5.7,1.1,7.5,3.2L44.2,83.4z"/>
	<polygon class="st0" points="55.8,99.1 55.8,79.7 57,79.6 57,88.4 67.7,88.5 67.7,79.7 68.9,79.7 68.9,99.1 67.7,99.1 67.7,89.5 
		56.9,89.4 57,99.1 	"/>
	<polygon class="st0" points="83.1,99.1 81.9,99.1 81.9,80.7 76.4,80.7 76.4,79.7 88.6,79.7 88.6,80.7 83.1,80.7 	"/>
	<path class="st0" d="M98.3,98.1l3.9,0c3.8,0,5.3-1.8,5.3-4.3c0-2.7-1.6-4.5-4.8-4.5l-4.4,0l0-1l2.8,0c3.7,0,5.4-1.3,5.4-4.2
		c0-2.3-1.6-3.8-4.4-3.8c-2.8,0-4.9,1.6-4.9,4.8l0,13.9l-1.2,0l0-13.2c0-4.5,2.2-6.5,6.1-6.5c3.8,0,5.6,2.3,5.6,4.8
		c0,2-0.7,3.8-2.9,4.6v0.1c1.7,0,3.9,2.1,3.9,5.1c0,2.8-1.9,5.2-5.8,5.2h-4.6L98.3,98.1z"/>
	<path class="st0" d="M144.1,99.1l0-19.4l4.2,0c5.1,0,9.8,3.9,9.8,9.7c0,5.9-4.1,9.7-9.1,9.7l-2.8,0l0-1.1l2.7,0
		c5.1,0,8.1-4.2,8.1-8.6c0-4.8-3.8-8.7-9.1-8.7l-2.6,0v18.4L144.1,99.1z"/>
	<path class="st0" d="M178.5,79.7l0,5.3c0,3.7-2.6,6-5.4,6l0,8.1l-1.2,0l0-8.1c-2.8,0-5.4-2.3-5.4-6l0-5.3l1.2,0l0,5.4
		c0,3,2,4.9,4.8,4.9c2.8,0,4.8-1.9,4.8-4.9l0-5.4H178.5z"/>
	<path class="st1" d="M35.3,5.7c-0.2,3.2,2.2,5.9,5.4,6.2c3.2,0.2,5.9-2.2,6.2-5.3c0.2-3.2-2.2-5.9-5.3-6.2c-0.1,0-0.3,0-0.4,0
		C38.1,0.3,35.5,2.6,35.3,5.7"/>
	<path class="st2" d="M50.7,21.1c-0.3,3.8,2.6,7.1,6.4,7.3c3.8,0.3,7.1-2.6,7.3-6.3c0.3-3.8-2.6-7.1-6.3-7.3c-0.2,0-0.3,0-0.5,0
		C54,14.8,51,17.5,50.7,21.1"/>
	<path class="st1" d="M57.1,28.4c-3.8-0.3-6.6-3.5-6.4-7.3c0.3-3.8,3.5-6.6,7.3-6.3c3.8,0.3,6.6,3.5,6.3,7.3
		C64.1,25.9,60.8,28.7,57.1,28.4"/>
	<path class="st2" d="M68,40c-0.3,4.7,3.2,8.8,7.9,9.1c4.7,0.4,8.8-3.2,9.1-7.9c0.3-4.7-3.2-8.8-7.9-9.1c-0.2,0-0.4,0-0.6,0
		C72.1,32.1,68.3,35.5,68,40"/>
	<path class="st1" d="M75.9,49.2c-4.7-0.3-8.2-4.4-7.9-9.1c0.3-4.7,4.5-8.2,9.1-7.9c4.7,0.3,8.3,4.4,7.9,9.1
		C84.7,46,80.6,49.5,75.9,49.2"/>
	<path class="st1" d="M98.9,73c-5.2-0.4-9.1-4.9-8.7-10c0.4-5.2,4.9-9,10-8.7c5.2,0.4,9.1,4.9,8.7,10.1C108.5,69.5,104,73.4,98.9,73
		"/>
	<path class="st1" d="M124.5,100.3c-6.1-0.4-10.7-5.7-10.2-11.8c0.4-6.1,5.7-10.7,11.9-10.2c6.1,0.4,10.7,5.8,10.2,11.8
		C135.9,96.1,130.6,100.7,124.5,100.3"/>
	<path class="st1" d="M150.3,74.3c-6.8-0.5-12-6.4-11.5-13.2c0.5-6.8,6.4-12,13.2-11.5c6.8,0.5,12,6.4,11.5,13.2
		C163.1,69.6,157.1,74.8,150.3,74.3"/>
	<path class="st1" d="M179.4,46.1c-7.9-0.6-13.9-7.5-13.3-15.5c0.6-7.9,7.5-13.9,15.4-13.4c8,0.6,13.9,7.5,13.4,15.4
		C194.3,40.7,187.4,46.7,179.4,46.1"/>
</g>
</svg>
